<svg baseProfile="full" height="28" version="1.1" viewBox="0 0 230 28" width="230" xmlns="http://www.w3.org/2000/svg" xmlns:ev="http://www.w3.org/2001/xml-events" xmlns:xlink="http://www.w3.org/1999/xlink"><defs /><g><path d="M2.639344262295082 27.54098360655738V0.7650273224043715H12.66120218579235Q15.912568306010929 0.7650273224043715 18.05464480874317 1.8743169398907114Q20.19672131147541 2.983606557377051 21.229508196721312 4.857923497267761Q22.262295081967213 6.73224043715847 22.262295081967213 9.142076502732241Q22.262295081967213 11.36065573770492 21.26775956284153 13.23497267759563Q20.273224043715846 15.10928961748634 18.131147540983605 16.275956284153008Q15.989071038251366 17.442622950819676 12.66120218579235 17.442622950819676H7.80327868852459V27.54098360655738ZM7.80327868852459 13.27322404371585H12.3551912568306Q14.841530054644808 13.27322404371585 15.93169398907104 12.144808743169401Q17.02185792349727 11.016393442622952 17.02185792349727 9.142076502732241Q17.02185792349727 7.153005464480877 15.93169398907104 6.062841530054648Q14.841530054644808 4.972677595628419 12.3551912568306 4.972677595628419H7.80327868852459Z M26.125683060109292 27.54098360655738V0.7650273224043715H36.14754098360656Q39.39890710382514 0.7650273224043715 41.540983606557376 1.8743169398907114Q43.68306010928962 2.983606557377051 44.715846994535525 4.857923497267761Q45.74863387978142 6.73224043715847 45.74863387978142 9.142076502732241Q45.74863387978142 11.36065573770492 44.75409836065574 13.23497267759563Q43.759562841530055 15.10928961748634 41.61748633879782 16.275956284153008Q39.47540983606557 17.442622950819676 36.14754098360656 17.442622950819676H31.2896174863388V27.54098360655738ZM31.2896174863388 13.27322404371585H35.84153005464481Q38.32786885245902 13.27322404371585 39.41803278688525 12.144808743169401Q40.50819672131148 11.016393442622952 40.50819672131148 9.142076502732241Q40.50819672131148 7.153005464480877 39.41803278688525 6.062841530054648Q38.32786885245902 4.972677595628419 35.84153005464481 4.972677595628419H31.2896174863388Z M55.84699453551913 27.54098360655738V4.9344262295081975H48.00546448087432V0.7650273224043715H68.77595628415301V4.9344262295081975H60.97267759562842V27.54098360655738Z  M81.43715846994536 27.54098360655738V0.7650273224043715H91.4207650273224Q94.672131147541 0.7650273224043715 96.77595628415301 1.8743169398907114Q98.87978142076503 2.983606557377051 99.91256830601094 4.838797814207652Q100.94535519125684 6.693989071038253 100.94535519125684 8.95081967213115Q100.94535519125684 11.092896174863391 99.95081967213116 12.948087431693992Q98.95628415300547 14.803278688524593 96.83333333333334 15.93169398907104Q94.7103825136612 17.060109289617486 91.38251366120218 17.060109289617486H86.60109289617486V27.54098360655738ZM95.3224043715847 27.54098360655738 89.81420765027323 15.759562841530057H95.39890710382514L101.21311475409837 27.54098360655738ZM86.60109289617486 13.311475409836067H91.11475409836066Q93.44808743169399 13.311475409836067 94.55737704918033 12.16393442622951Q95.66666666666667 11.016393442622952 95.66666666666667 9.142076502732241Q95.66666666666667 7.267759562841533 94.57650273224044 6.177595628415302Q93.48633879781421 5.087431693989071 91.11475409836066 5.087431693989071H86.60109289617486Z M114.71584699453553 28.000000000000004Q111.80874316939892 28.000000000000004 109.57103825136613 26.7568306010929Q107.33333333333334 25.513661202185794 106.09016393442624 23.275956284153008Q104.84699453551913 21.03825136612022 104.84699453551913 18.09289617486339Q104.84699453551913 15.071038251366122 106.07103825136613 12.756830601092899Q107.29508196721312 10.442622950819676 109.53278688524591 9.122950819672134Q111.7704918032787 7.803278688524593 114.71584699453553 7.803278688524593Q117.58469945355192 7.803278688524593 119.72677595628417 9.065573770491806Q121.86885245901641 10.32786885245902 123.05464480874318 12.46994535519126Q124.24043715846996 14.6120218579235 124.24043715846996 17.32786885245902Q124.24043715846996 17.7103825136612 124.24043715846996 18.188524590163937Q124.24043715846996 18.666666666666668 124.16393442622952 19.16393442622951H108.51912568306011V16.02732240437159H119.03825136612022Q118.92349726775957 14.153005464480875 117.71857923497268 13.081967213114755Q116.5136612021858 12.010928961748636 114.71584699453553 12.010928961748636Q113.4153005464481 12.010928961748636 112.30601092896175 12.603825136612024Q111.19672131147541 13.196721311475411 110.56557377049181 14.420765027322407Q109.9344262295082 15.644808743169401 109.9344262295082 17.51912568306011V18.62841530054645Q109.9344262295082 20.19672131147541 110.5273224043716 21.36338797814208Q111.12021857923499 22.530054644808743 112.1912568306011 23.16120218579235Q113.26229508196722 23.79234972677596 114.6775956284153 23.79234972677596Q116.0928961748634 23.79234972677596 117.03005464480876 23.180327868852462Q117.9672131147541 22.568306010928964 118.42622950819673 21.6120218579235H123.70491803278689Q123.16939890710384 23.40983606557377 121.90710382513663 24.86338797814208Q120.6448087431694 26.316939890710383 118.80874316939892 27.158469945355193Q116.97267759562843 28.000000000000004 114.71584699453553 28.000000000000004Z M137.81967213114754 28.000000000000004Q134.91256830601094 28.000000000000004 132.65573770491804 26.69945355191257Q130.39890710382514 25.398907103825138 129.13661202185793 23.142076502732245Q127.8743169398907 20.885245901639347 127.8743169398907 17.978142076502735Q127.8743169398907 14.994535519125685 129.13661202185793 12.71857923497268Q130.39890710382514 10.442622950819676 132.65573770491804 9.122950819672134Q134.91256830601094 7.803278688524593 137.81967213114754 7.803278688524593Q141.53005464480873 7.803278688524593 144.05464480874315 9.754098360655739Q146.5792349726776 11.704918032786887 147.26775956284152 15.10928961748634H141.79781420765028Q141.45355191256832 13.77049180327869 140.3633879781421 13.005464480874318Q139.27322404371586 12.240437158469947 137.78142076502732 12.240437158469947Q136.44262295081967 12.240437158469947 135.39071038251365 12.90983606557377Q134.33879781420765 13.579234972677597 133.74590163934425 14.86065573770492Q133.15300546448088 16.142076502732245 133.15300546448088 17.901639344262296Q133.15300546448088 19.240437158469945 133.49726775956285 20.292349726775956Q133.8415300546448 21.34426229508197 134.4535519125683 22.09016393442623Q135.0655737704918 22.836065573770494 135.9262295081967 23.21857923497268Q136.78688524590163 23.601092896174865 137.78142076502732 23.601092896174865Q138.775956284153 23.601092896174865 139.5983606557377 23.2568306010929Q140.4207650273224 22.912568306010932 140.9945355191257 22.281420765027327Q141.56830601092895 21.65027322404372 141.79781420765028 20.732240437158474H147.26775956284152Q146.5792349726776 24.06010928961749 144.03551912568304 26.030054644808747Q141.4918032786885 28.000000000000004 137.81967213114754 28.000000000000004Z M160.8087431693989 28.000000000000004Q158.05464480874318 28.000000000000004 155.8551912568306 26.71857923497268Q153.65573770491804 25.43715846994536 152.37431693989072 23.161202185792355Q151.0928961748634 20.885245901639347 151.0928961748634 17.939890710382514Q151.0928961748634 14.918032786885247 152.37431693989072 12.642076502732241Q153.65573770491804 10.366120218579237 155.87431693989072 9.084699453551915Q158.0928961748634 7.803278688524593 160.84699453551912 7.803278688524593Q163.63934426229508 7.803278688524593 165.83879781420765 9.084699453551915Q168.03825136612022 10.366120218579237 169.31967213114754 12.642076502732241Q170.60109289617486 14.918032786885247 170.60109289617486 17.901639344262296Q170.60109289617486 20.885245901639347 169.31967213114754 23.161202185792355Q168.03825136612022 25.43715846994536 165.81967213114754 26.71857923497268Q163.60109289617486 28.000000000000004 160.8087431693989 28.000000000000004ZM160.8087431693989 23.524590163934427Q162.10928961748633 23.524590163934427 163.12295081967213 22.912568306010932Q164.13661202185793 22.300546448087434 164.72950819672133 21.03825136612022Q165.3224043715847 19.775956284153008 165.3224043715847 17.901639344262296Q165.3224043715847 16.02732240437159 164.72950819672133 14.784153005464484Q164.13661202185793 13.54098360655738 163.12295081967213 12.909836065573773Q162.10928961748633 12.278688524590166 160.84699453551912 12.278688524590166Q159.62295081967213 12.278688524590166 158.59016393442624 12.909836065573773Q157.55737704918033 13.54098360655738 156.96448087431696 14.784153005464484Q156.37158469945356 16.02732240437159 156.37158469945356 17.901639344262296Q156.37158469945356 19.775956284153008 156.96448087431696 21.03825136612022Q157.55737704918033 22.300546448087434 158.57103825136613 22.912568306010932Q159.5846994535519 23.524590163934427 160.8087431693989 23.524590163934427Z M175.03825136612022 27.54098360655738V8.262295081967213H179.62841530054646L180.1256830601093 11.819672131147543Q180.81420765027323 10.557377049180328 181.86612021857923 9.677595628415302Q182.91803278688525 8.797814207650276 184.275956284153 8.300546448087434Q185.63387978142077 7.803278688524593 187.27868852459017 7.803278688524593V13.27322404371585H185.5191256830601Q184.37158469945356 13.27322404371585 183.39617486338798 13.54098360655738Q182.4207650273224 13.808743169398909 181.69398907103826 14.401639344262296Q180.96721311475412 14.994535519125685 180.58469945355193 16.027322404371585Q180.20218579234972 17.060109289617486 180.20218579234972 18.62841530054645V27.54098360655738Z M199.2513661202186 28.000000000000004Q196.6120218579235 28.000000000000004 194.5273224043716 26.69945355191257Q192.44262295081967 25.398907103825138 191.2568306010929 23.103825136612024Q190.07103825136613 20.80874316939891 190.07103825136613 17.939890710382514Q190.07103825136613 14.994535519125685 191.275956284153 12.71857923497268Q192.4808743169399 10.442622950819676 194.60382513661202 9.122950819672134Q196.72677595628414 7.803278688524593 199.36612021857923 7.803278688524593Q201.43169398907105 7.803278688524593 203.0 8.568306010928964Q204.56830601092895 9.333333333333336 205.52459016393442 10.748633879781423V0.0H210.68852459016392V27.54098360655738H206.0983606557377L205.52459016393442 24.901639344262296Q204.95081967213116 25.70491803278689 204.09016393442624 26.431693989071043Q203.22950819672133 27.158469945355193 202.04371584699453 27.579234972677597Q200.85792349726776 28.000000000000004 199.2513661202186 28.000000000000004ZM200.47540983606558 23.48633879781421Q202.0054644808743 23.48633879781421 203.172131147541 22.778688524590166Q204.33879781420765 22.071038251366122 204.98907103825138 20.80874316939891Q205.63934426229508 19.546448087431695 205.63934426229508 17.901639344262296Q205.63934426229508 16.2568306010929 204.98907103825138 14.994535519125687Q204.33879781420765 13.732240437158472 203.172131147541 13.024590163934429Q202.0054644808743 12.316939890710385 200.47540983606558 12.316939890710385Q199.02185792349727 12.316939890710385 197.8360655737705 13.024590163934429Q196.65027322404373 13.732240437158472 195.9808743169399 14.994535519125687Q195.31147540983608 16.2568306010929 195.31147540983608 17.86338797814208Q195.31147540983608 19.546448087431695 195.9808743169399 20.80874316939891Q196.65027322404373 22.071038251366122 197.8169398907104 22.778688524590166Q198.98360655737704 23.48633879781421 200.47540983606558 23.48633879781421Z M223.61748633879782 28.000000000000004Q220.97814207650273 28.000000000000004 219.0273224043716 27.158469945355193Q217.07650273224044 26.316939890710383 215.9672131147541 24.825136612021858Q214.85792349726776 23.333333333333336 214.7049180327869 21.459016393442624H219.8306010928962Q220.02185792349727 22.18579234972678 220.4808743169399 22.778688524590166Q220.9398907103825 23.371584699453553 221.7049180327869 23.71584699453552Q222.46994535519127 24.06010928961749 223.54098360655738 24.06010928961749Q224.5737704918033 24.06010928961749 225.22404371584702 23.77322404371585Q225.87431693989072 23.48633879781421 226.1994535519126 22.989071038251367Q226.52459016393445 22.491803278688526 226.52459016393445 21.956284153005466Q226.52459016393445 21.153005464480877 226.06557377049182 20.713114754098363Q225.6065573770492 20.27322404371585 224.72677595628417 20.00546448087432Q223.84699453551914 19.73770491803279 222.58469945355193 19.469945355191257Q221.20765027322406 19.20218579234973 219.88797814207652 18.800546448087434Q218.56830601092898 18.398907103825138 217.53551912568307 17.78688524590164Q216.50273224043715 17.174863387978142 215.89071038251365 16.21857923497268Q215.27868852459017 15.262295081967215 215.27868852459017 13.846994535519128Q215.27868852459017 12.125683060109292 216.19672131147541 10.767759562841531Q217.11475409836066 9.40983606557377 218.87431693989072 8.606557377049182Q220.63387978142077 7.803278688524593 223.12021857923497 7.803278688524593Q226.60109289617486 7.803278688524593 228.62841530054646 9.371584699453553Q230.65573770491804 10.939890710382514 231.03825136612022 13.693989071038253H226.18032786885246Q225.95081967213116 12.814207650273225 225.16666666666669 12.297814207650275Q224.3825136612022 11.781420765027324 223.08196721311475 11.781420765027324Q221.7049180327869 11.781420765027324 220.97814207650276 12.278688524590166Q220.2513661202186 12.775956284153008 220.2513661202186 13.579234972677597Q220.2513661202186 14.114754098360658 220.72950819672133 14.535519125683063Q221.20765027322406 14.956284153005466 222.0874316939891 15.243169398907106Q222.96721311475412 15.530054644808745 224.22950819672133 15.797814207650275Q226.448087431694 16.2568306010929 228.13114754098362 16.849726775956288Q229.81420765027323 17.442622950819676 230.7704918032787 18.532786885245905Q231.72677595628417 19.622950819672134 231.72677595628417 21.688524590163937Q231.72677595628417 23.524590163934427 230.73224043715848 24.959016393442624Q229.7377049180328 26.393442622950822 227.92076502732243 27.196721311475414Q226.10382513661204 28.000000000000004 223.61748633879782 28.000000000000004Z " fill="rgb(0,0,0)" transform="translate(-2.639344262295082, 0)" /></g></svg>